<svg width="512" height="512" viewBox="0 0 512 512" fill="none" xmlns="http://www.w3.org/2000/svg">
<g clip-path="url(#clip0_1440_2)">
<path d="M496.448 200.938C477.189 169.402 452.896 141.232 424.533 117.546L484.267 57.813C488.153 53.7895 490.303 48.4007 490.254 42.8071C490.206 37.2136 487.962 31.8629 484.007 27.9076C480.051 23.9522 474.701 21.7086 469.107 21.66C463.514 21.6114 458.125 23.7617 454.101 27.6477L389.141 92.693C348.872 68.7746 302.835 56.3083 256 56.6397C123.925 56.6397 48.6612 147.05 15.5519 200.938C5.32314 217.482 -0.0949707 236.549 -0.0949707 256C-0.0949707 275.451 5.32314 294.517 15.5519 311.061C34.8107 342.598 59.1036 370.768 87.4665 394.453L27.7332 454.186C25.6957 456.154 24.0704 458.508 22.9524 461.111C21.8343 463.714 21.2458 466.513 21.2212 469.346C21.1966 472.178 21.7364 474.988 22.809 477.609C23.8817 480.231 25.4657 482.613 27.4688 484.616C29.4718 486.619 31.8537 488.203 34.4755 489.276C37.0973 490.349 39.9065 490.888 42.7391 490.864C45.5717 490.839 48.3711 490.251 50.9738 489.133C53.5766 488.014 55.9306 486.389 57.8985 484.352L123.008 419.242C163.227 443.157 209.209 455.645 256 455.36C388.075 455.36 463.339 364.949 496.448 311.061C506.677 294.517 512.095 275.451 512.095 256C512.095 236.549 506.677 217.482 496.448 200.938ZM51.9039 288.725C45.8268 278.891 42.6079 267.56 42.6079 256C42.6079 244.44 45.8268 233.108 51.9039 223.274C80.3625 177.066 144.683 99.3064 256 99.3064C291.419 99.1079 326.341 107.644 357.675 124.16L314.731 167.104C294.249 153.506 269.694 147.413 245.232 149.859C220.769 152.305 197.906 163.139 180.523 180.522C163.139 197.906 152.305 220.769 149.859 245.231C147.413 269.694 153.506 294.249 167.104 314.73L117.824 364.01C91.6927 342.884 69.3937 317.417 51.9039 288.725ZM320 256C320 272.974 313.257 289.252 301.255 301.255C289.252 313.257 272.974 320 256 320C246.496 319.963 237.124 317.775 228.587 313.6L313.6 228.586C317.775 237.124 319.963 246.496 320 256ZM192 256C192 239.026 198.743 222.747 210.745 210.745C222.747 198.743 239.026 192 256 192C265.504 192.037 274.876 194.225 283.413 198.4L198.4 283.413C194.225 274.875 192.037 265.503 192 256ZM460.096 288.725C431.637 334.933 367.317 412.693 256 412.693C220.581 412.891 185.659 404.355 154.325 387.84L197.269 344.896C217.751 358.494 242.306 364.586 266.768 362.141C291.231 359.695 314.093 348.861 331.477 331.477C348.861 314.093 359.695 291.23 362.141 266.768C364.587 242.306 358.494 217.75 344.896 197.269L394.176 147.989C420.307 169.115 442.606 194.582 460.096 223.274C466.173 233.108 469.392 244.44 469.392 256C469.392 267.56 466.173 278.891 460.096 288.725Z" fill="white"/>
</g>
<defs>
<clipPath id="clip0_1440_2">
<rect width="512" height="512" fill="white"/>
</clipPath>
</defs>
</svg>
