<svg width="70" height="70" viewBox="0 0 70 70" fill="none" xmlns="http://www.w3.org/2000/svg">
<path d="M62.1272 8.38083C61.4453 8.41074 60.7816 8.60052 60.183 8.8402C59.5906 9.07828 56.1799 10.534 51.1432 12.6875C46.1065 14.8409 39.5592 17.6451 33.069 20.4257C20.0885 25.987 7.33304 31.459 7.33304 31.459L7.42601 31.4234C7.42601 31.4234 6.65615 31.6807 5.87562 32.2246C5.48535 32.4965 5.06549 32.8475 4.72171 33.3593C4.37793 33.8711 4.12661 34.5965 4.22132 35.3636C4.55399 38.0583 7.34671 38.8226 7.34671 38.8226L7.35765 38.8281L19.8209 43.0937C20.1387 44.1538 23.6011 55.7101 24.3627 58.1574C24.7834 59.5104 25.1771 60.291 25.5877 60.8234C25.7932 61.0899 26.0086 61.296 26.2467 61.4468C26.3413 61.5067 26.4408 61.5517 26.5393 61.5918H26.5448C26.5569 61.5971 26.5682 61.5976 26.5803 61.6027L26.5475 61.5945C26.5704 61.6037 26.5929 61.6193 26.6159 61.6273C26.6603 61.6429 26.6875 61.6423 26.7444 61.6547C28.1717 62.153 29.353 61.2281 29.353 61.2281L29.4022 61.1898L37.0584 54.0886L49.4834 63.7765L49.6393 63.8476C51.8141 64.8133 53.7809 64.2745 54.8701 63.3882C55.9594 62.502 56.3877 61.3593 56.3877 61.3593L56.4342 61.239L65.5643 13.6527C65.7979 12.5881 65.8311 11.6679 65.6108 10.8363C65.3904 10.0047 64.8551 9.28188 64.1834 8.88122C63.5117 8.48056 62.809 8.35091 62.1272 8.38083ZM62.201 11.2273C62.4779 11.2145 62.6832 11.2461 62.7479 11.2847C62.8126 11.3233 62.8416 11.3182 62.9037 11.5527C62.9659 11.7872 62.9995 12.281 62.8299 13.0539L62.8244 13.0703L53.7463 60.3804C53.7248 60.4281 53.5357 60.8657 53.1037 61.2172C52.6631 61.5757 52.1731 61.8555 50.8725 61.3101L37.2854 50.7144L36.9026 50.4136L36.8944 50.4218L32.8311 47.373L55.6658 20.5078C55.8413 20.3019 55.9534 20.0496 55.9885 19.7813C56.0236 19.5131 55.9802 19.2405 55.8637 18.9963C55.7471 18.7522 55.5623 18.5471 55.3316 18.4058C55.101 18.2644 54.8343 18.193 54.5639 18.2C54.2996 18.2068 54.0427 18.2884 53.8229 18.4351L20.7807 40.4632L8.29827 36.1894C8.29827 36.1894 7.05877 35.4997 6.99944 35.0191C6.99615 34.9925 6.98152 35.0166 7.04593 34.9207C7.11034 34.8248 7.27224 34.6629 7.47522 34.5215C7.88119 34.2386 8.34476 34.0675 8.34476 34.0675L8.39124 34.0511L8.43772 34.032C8.43772 34.032 21.1939 28.5598 34.1737 22.9988C40.6635 20.2183 47.2097 17.4161 52.2451 15.2632C57.2793 13.1109 60.9168 11.5617 61.2248 11.4379C61.5755 11.2974 61.9241 11.2401 62.201 11.2273ZM47.058 26.3101L29.7412 46.684L29.733 46.6922C29.706 46.7247 29.6805 46.7585 29.6565 46.7933C29.629 46.8312 29.6035 46.8705 29.5799 46.9109C29.4826 47.076 29.4203 47.2594 29.3967 47.4496C29.3967 47.4532 29.3967 47.4569 29.3967 47.4605L27.1409 57.605C27.1033 57.4954 27.0771 57.4553 27.0369 57.3261V57.3234C26.3204 55.0212 23.0538 44.1225 22.6018 42.6152L47.058 26.3101ZM31.6963 50.0226L34.808 52.3578L30.2362 56.5961L31.6963 50.0226Z" fill="#A0A0A0"/>
</svg>
