<svg width="389" height="379" viewBox="0 0 389 379" fill="none" xmlns="http://www.w3.org/2000/svg">
<path fill-rule="evenodd" clip-rule="evenodd" d="M203.965 206.966C204.7 230.568 198.477 244.779 186.586 259.059C150.998 301.797 72.6743 291.517 54.1707 235.043C50.402 223.541 52.2556 217.94 42.6708 212.216C28.7137 203.882 -7.53215 209.719 22.7368 265.736C30.0437 279.258 43.0715 293.06 55.9201 302.307C65.7977 309.416 90.2239 322.071 105.631 321.936L107.719 317.517C123.209 295.401 144.787 285.558 172.301 294.329C182.234 297.495 185.03 302.619 192.272 305.601C204.17 301.628 214.942 288.091 222.843 279.351C236.653 261.671 248.034 227.572 245.75 208.48L244.793 200.482C243.308 188.073 234.836 178.434 221.639 179.457C207.024 180.589 200.531 192.625 203.965 206.966L203.965 206.966Z" fill="#FEFEFE"/>
<path fill-rule="evenodd" clip-rule="evenodd" d="M185.988 40.5195C194.067 42.0365 209.994 50.0917 220.926 38.9457C229.573 30.1288 227.59 14.2534 216.054 8.38212C196.712 -1.46218 161.498 -2.34288 138.346 4.20899C120.167 9.35412 90.1332 24.2105 82.5141 38.3368C82.2472 39.3832 92.6998 48.0841 92.5877 71.1168C92.4861 92.5285 75.3672 111.445 53.7202 117.016C51.4089 155.233 84.8452 195.531 120.835 211.432C157.933 227.824 165.767 192.042 150.182 181.448C117.656 165.245 90.9789 144.576 94.857 105.738C99.0999 63.253 140.158 31.9131 185.988 40.5195H185.988Z" fill="#FEFEFE"/>
<path fill-rule="evenodd" clip-rule="evenodd" d="M307.491 238.148C297.317 252.044 291.326 252.502 287.331 259.805C276.97 278.746 306.779 315.675 346.503 254.116C362.168 225.575 368.354 196.483 356.139 162.071C335.805 160.992 317.582 155.991 306.439 143.085C294.48 129.235 295.074 114.878 295.978 98.2916C275.251 87.6266 242.129 84.12 216.817 90.0166C136.705 108.681 158.67 152.84 188.253 146.095C196.062 144.314 219.553 118.346 261.699 128.063C288.24 134.182 311.293 153.999 318.189 179.071C323.732 199.229 320.035 221.031 307.491 238.148Z" fill="#FEFEFE"/>
<path d="M154.34 379C176.895 379 195.18 361.871 195.18 340.742C195.18 319.613 176.895 302.484 154.34 302.484C131.785 302.484 113.501 319.613 113.501 340.742C113.501 361.871 131.785 379 154.34 379Z" fill="#FEFEFE"/>
<path d="M348.135 150.862C370.69 150.862 388.974 133.734 388.974 112.604C388.974 91.475 370.69 74.3463 348.135 74.3463C325.58 74.3463 307.295 91.475 307.295 112.604C307.295 133.734 325.58 150.862 348.135 150.862Z" fill="#FEFEFE"/>
<path d="M40.8392 107.606C63.3941 107.606 81.6785 90.4774 81.6785 69.348C81.6785 48.2187 63.3941 31.09 40.8392 31.09C18.2844 31.09 0 48.2187 0 69.348C0 90.4774 18.2844 107.606 40.8392 107.606Z" fill="#FEFEFE"/>
</svg>
