<svg width="105" height="102" viewBox="0 0 105 102" fill="none" xmlns="http://www.w3.org/2000/svg">
<path fill-rule="evenodd" clip-rule="evenodd" d="M54.6077 55.4102C54.8044 61.7292 53.1385 65.5339 49.9549 69.357C40.4269 80.7989 19.4576 78.0469 14.5037 62.9271C13.4947 59.8477 13.991 58.3482 11.4249 56.8158C7.68818 54.5845 -2.01583 56.1472 6.08799 71.1445C8.04424 74.7648 11.5321 78.4599 14.9721 80.9356C17.6166 82.8388 24.1561 86.2268 28.2809 86.1909L28.8401 85.0078C32.9872 79.0867 38.7641 76.4514 46.1305 78.7996C48.7896 79.6473 49.5382 81.0192 51.4773 81.8175C54.6626 80.7539 57.5467 77.1295 59.662 74.7897C63.3591 70.0561 66.4061 60.9271 65.7946 55.8156L65.5384 53.6742C65.141 50.3519 62.8726 47.7714 59.3395 48.0452C55.4267 48.3484 53.6884 51.5706 54.6078 55.4101L54.6077 55.4102Z" fill="#A0A0A0"/>
<path fill-rule="evenodd" clip-rule="evenodd" d="M49.7936 10.8481C51.9566 11.2543 56.2208 13.4108 59.1475 10.4267C61.4625 8.06625 60.9315 3.81597 57.843 2.24406C52.6646 -0.39153 43.2369 -0.627318 37.0386 1.12679C32.1715 2.50429 24.1306 6.48174 22.0908 10.2637C22.0193 10.5439 24.8178 12.8734 24.7878 19.0398C24.7606 24.7723 20.1774 29.8369 14.3819 31.3284C13.7631 41.56 22.7149 52.3488 32.3503 56.6061C42.2824 60.9947 44.3797 51.4148 40.2072 48.5786C31.4991 44.2407 24.357 38.707 25.3953 28.3088C26.5313 16.9345 37.5237 8.54393 49.7937 10.8481H49.7936Z" fill="#A0A0A0"/>
<path fill-rule="evenodd" clip-rule="evenodd" d="M82.324 63.7586C79.5999 67.4789 77.996 67.6013 76.9265 69.5565C74.1526 74.6276 82.1333 84.5145 92.7684 68.0335C96.9624 60.3924 98.6186 52.6037 95.3482 43.3906C89.9044 43.1017 85.0255 41.7629 82.0422 38.3076C78.8406 34.5996 78.9995 30.7557 79.2417 26.3151C73.6924 23.4598 64.8248 22.521 58.0481 24.0996C36.5999 29.0966 42.4804 40.9191 50.4007 39.1134C52.4913 38.6367 58.7806 31.6843 70.0641 34.2857C77.17 35.9239 83.3419 41.2294 85.1881 47.942C86.6721 53.3387 85.6822 59.1757 82.324 63.7586Z" fill="#A0A0A0"/>
<path d="M41.3205 101.468C47.3591 101.468 52.2543 96.8824 52.2543 91.2255C52.2543 85.5686 47.3591 80.9828 41.3205 80.9828C35.2819 80.9828 30.3867 85.5686 30.3867 91.2255C30.3867 96.8824 35.2819 101.468 41.3205 101.468Z" fill="#A0A0A0"/>
<path d="M93.2053 40.39C99.2438 40.39 104.139 35.8042 104.139 30.1473C104.139 24.4904 99.2438 19.9045 93.2053 19.9045C87.1667 19.9045 82.2715 24.4904 82.2715 30.1473C82.2715 35.8042 87.1667 40.39 93.2053 40.39Z" fill="#A0A0A0"/>
<path d="M10.9338 28.8089C16.9723 28.8089 21.8676 24.2231 21.8676 18.5662C21.8676 12.9093 16.9723 8.32349 10.9338 8.32349C4.89522 8.32349 0 12.9093 0 18.5662C0 24.2231 4.89522 28.8089 10.9338 28.8089Z" fill="#A0A0A0"/>
</svg>
